<?xml version="1.0" encoding="UTF-8"?>
<svg width="709px" height="864px" viewBox="0 0 709 864" version="1.1" xmlns="http://www.w3.org/2000/svg" xmlns:xlink="http://www.w3.org/1999/xlink">
    <!-- Generator: Sketch 48.2 (47327) - http://www.bohemiancoding.com/sketch -->
    <title>Group</title>
    <desc>Created with Sketch.</desc>
    <defs>
        <linearGradient x1="84.9141377%" y1="25.270707%" x2="14.8445411%" y2="79.5020745%" id="linearGradient-1">
            <stop stop-color="#00EA97" offset="0%"></stop>
            <stop stop-color="#09D1E8" offset="100%"></stop>
        </linearGradient>
        <linearGradient x1="36.2188545%" y1="27.2072194%" x2="50%" y2="107.916848%" id="linearGradient-2">
            <stop stop-color="#FFDD38" offset="0%"></stop>
            <stop stop-color="#FF65D6" offset="100%"></stop>
        </linearGradient>
        <linearGradient x1="50%" y1="0%" x2="50%" y2="100%" id="linearGradient-3">
            <stop stop-color="#00C4FF" offset="0%"></stop>
            <stop stop-color="#006EFF" offset="100%"></stop>
        </linearGradient>
        <circle id="path-4" cx="354.5" cy="354.5" r="354.5"></circle>
    </defs>
    <g id="Artboard" stroke="none" stroke-width="1" fill="none" fill-rule="evenodd" transform="translate(-143.000000, -66.000000)">
        <g id="Group" transform="translate(143.000000, 66.000000)">
            <circle id="Oval" fill="url(#linearGradient-1)" cx="412.5" cy="722.5" r="141.5"></circle>
            <circle id="Oval" fill="url(#linearGradient-2)" cx="206" cy="581" r="206"></circle>
            <g id="Oval">
                <use fill="#D8D8D8" xlink:href="#path-4"></use>
                <use fill="url(#linearGradient-3)" xlink:href="#path-4"></use>
            </g>
            <g id="Group-2" transform="translate(354.500000, 342.000000) scale(1, -1) translate(-354.500000, -342.000000) translate(98.000000, 198.000000)" fill="#FFFFFF">
                <path d="M273.05021,285.634169 C286.097816,281.538935 295.335902,272.777039 303.145418,256.967531 C310.002554,243.062783 313.431122,230.015177 313.431122,217.538999 C313.431122,213.919955 312.288266,204.491393 310.954934,196.586639 C307.431128,176.110469 307.526366,174.110471 312.383504,169.253333 L316.3835,165.348575 L312.859694,163.824767 C310.954934,163.062863 306.193034,161.634293 302.193038,160.777151 C298.193042,159.824771 294.764474,158.872391 294.47876,158.681915 C294.288284,158.586677 295.621616,157.062869 297.526376,155.348585 L300.954944,152.396207 L296.954948,152.872397 C294.764474,153.158111 290.383526,153.634301 287.145434,153.920015 L281.431154,154.586681 L281.431154,150.777161 C281.431154,145.158119 284.00258,134.205749 286.288292,129.824801 C290.19305,122.205761 293.621618,120.205763 317.431118,112.015295 C335.812052,105.634349 340.66919,103.158161 347.716802,96.5867394 C353.335844,91.3486494 360.288218,77.9200914 362.764406,67.4439114 C365.621546,55.4439234 367.621544,37.2534654 367.240592,26.9677614 C366.764402,14.3963454 364.383452,9.34873144 356.573936,5.06302144 C348.002516,0.396359441 341.14538,0.110645441 252.478802,0.015407441 C164.288414,-0.079830559 160.66937,0.110645441 150.478904,5.25349744 C142.288436,9.25349344 139.907486,14.0153934 140.002724,25.9201434 C140.1932,42.4915554 146.193194,70.7772414 152.383664,84.1105614 C155.526518,90.7772214 161.716988,98.2057854 166.955078,101.443877 C168.7646,102.586733 178.002686,106.205777 187.621724,109.539107 C216.3836,119.634335 221.526452,122.872427 225.335972,132.967655 C226.764542,136.872413 229.431206,150.396209 229.431206,153.920015 C229.431206,154.110491 225.335972,154.015253 220.478834,153.729539 C215.526458,153.443825 211.431224,153.443825 211.431224,153.920015 C211.431224,154.300967 212.57408,155.539061 214.00265,156.681917 C215.43122,157.729535 216.3836,158.872391 216.193124,159.062867 C216.002648,159.253343 210.859796,160.300961 204.859802,161.539055 C198.859808,162.681911 193.716956,163.824767 193.52648,164.015243 C193.240766,164.300957 194.47886,165.920003 196.193144,167.729525 C197.907428,169.443809 200.002664,172.586663 200.859806,174.586661 C202.288376,178.015229 202.193138,178.872371 199.621712,188.586647 C197.240762,197.729495 196.955048,200.777111 196.955048,214.491383 C196.955048,229.634225 197.050286,230.110415 200.66933,240.586595 C208.097894,262.205621 215.812172,274.110371 225.812162,279.157985 C231.050252,281.729411 239.621672,282.586553 242.955002,280.681793 C244.383572,279.919889 245.240714,280.205603 246.954998,282.300839 C251.431184,287.443691 262.57403,288.872261 273.05021,285.634169 Z" id="Path"></path>
                <path d="M423.887101,263.519976 C437.315659,259.710456 445.887079,250.94856 449.410885,237.61524 C451.506121,229.52001 451.410883,224.567634 449.125171,222.948588 C447.601363,221.90097 447.125173,219.710496 446.553745,212.472408 C445.887079,203.520036 445.982317,203.234322 448.363267,200.758134 C449.887075,199.329564 450.934693,197.043852 450.934693,195.520044 C450.934693,190.758144 446.744221,176.948634 444.648985,174.853398 C443.601367,173.80578 442.077559,170.281974 441.315655,167.043882 C440.553751,163.710552 438.839467,158.948652 437.506135,156.281988 C435.315661,151.90104 435.220423,150.94866 435.982327,143.710572 C436.458517,139.424862 437.506135,133.520106 438.363277,130.662966 C440.934703,121.805832 440.648989,121.996308 481.410853,102.662994 C507.220351,90.47253 512.934631,81.90111 512.934631,55.139232 C512.839393,38.282106 510.839395,33.710682 501.410833,29.424972 C497.791789,27.805926 492.648937,27.61545 440.744227,27.329736 L384.077617,27.044022 L383.506189,30.377352 C380.458573,50.186856 377.315719,67.13922 375.315721,74.186832 C371.601439,87.1392 364.744303,100.282044 358.458595,106.472514 L353.030029,111.805842 L362.077639,116.18679 C366.934777,118.56774 371.887153,121.520118 372.934771,122.662974 C376.077625,125.901066 377.887147,131.42487 379.125241,141.520098 L380.268097,150.94866 L377.220481,156.758178 C375.506197,159.99627 373.506199,164.853408 372.839533,167.61531 C372.172867,170.47245 370.649059,173.520066 369.315727,174.662922 C366.744301,176.853396 362.934781,189.139098 362.934781,195.329568 C362.934781,198.758136 364.934779,202.186704 367.030015,202.186704 C367.506205,202.186704 367.887157,210.377172 367.887157,221.42478 C367.791919,236.18667 368.172871,241.805712 369.410965,245.805708 C371.125249,251.615226 375.125245,255.615222 380.172859,256.66284 C381.982381,257.043792 385.506187,258.5676 387.982375,260.091408 C392.268085,262.85331 396.744271,264.472356 401.982361,265.519974 C405.982357,266.281878 417.982345,265.139022 423.887101,263.519976 Z" id="Path"></path>
                <path d="M119.125501,254.186652 C131.887393,249.329514 138.839767,241.90095 142.649287,229.139058 C144.363571,223.424778 145.030237,203.043846 143.696905,198.09147 C143.125477,196.091472 143.411191,195.424806 145.220713,194.567664 C147.030235,193.80576 147.506425,192.662904 147.696901,188.853384 C148.268329,181.234344 146.173093,173.234352 142.839763,169.901022 C141.220717,168.281976 139.982623,166.377216 139.982623,165.71055 C139.982623,161.615316 135.601675,151.043898 132.363583,147.234378 L128.649301,143.043906 L129.315967,133.80582 C130.458823,119.615358 133.315963,114.948696 144.649285,109.234416 L148.934995,107.13918 L145.220713,102.37728 C136.649293,91.139196 131.411203,75.329688 126.649303,46.282098 L123.411211,27.044022 L69.982693,27.424974 C22.839883,27.710688 15.792271,27.996402 11.220847,29.424972 C5.030377,31.520208 0.935143,35.901156 0.935143,40.47258 C1.030381,46.948764 4.839901,67.043982 6.935137,71.805882 C11.125609,81.234444 15.220843,84.28206 45.316051,99.805854 C57.506515,106.1868 68.935075,112.472508 70.839835,113.901078 C75.601735,117.520122 77.792209,123.32964 78.554113,134.091534 C79.220779,143.043906 79.220779,143.234382 76.268401,147.424854 C72.839833,152.281992 71.411263,155.71056 69.982693,162.281982 C69.316027,165.139122 67.887457,168.0915 66.077935,169.805784 C60.173179,175.71054 58.935085,195.139092 64.458889,195.139092 C65.792221,195.139092 65.887459,196.18671 65.220793,201.90099 C64.744603,205.615272 64.458889,213.139074 64.458889,218.662878 C64.554127,227.234298 64.839841,229.424772 67.125553,234.377148 C71.887453,244.567614 80.458873,252.186654 91.411243,255.805698 C97.315999,257.805696 111.982651,256.948554 119.125501,254.186652 Z" id="Path"></path>
            </g>
        </g>
    </g>
</svg>